<svg width="11" height="22" viewBox="0 0 11 22" fill="none" xmlns="http://www.w3.org/2000/svg">
<path d="M1.82516 0.000106009C2.05996 -0.000691242 2.29196 0.0511162 2.50411 0.151723C2.71626 0.25233 2.90316 0.399181 3.05109 0.581481L10.6425 10.0092C10.8736 10.2903 11 10.643 11 11.0069C11 11.3709 10.8736 11.7235 10.6425 12.0047L2.7839 21.4324C2.51712 21.7533 2.13376 21.955 1.71816 21.9934C1.30256 22.0317 0.888754 21.9033 0.567783 21.6366C0.246814 21.3699 0.0449687 20.9867 0.00665105 20.5712C-0.0316675 20.1557 0.0966808 19.742 0.363461 19.4211L7.38901 10.9991L0.59922 2.577C0.407026 2.34637 0.284941 2.06551 0.247409 1.76768C0.209877 1.46985 0.258469 1.16749 0.387438 0.896403C0.516406 0.625316 0.720351 0.396833 0.975142 0.237992C1.22993 0.0791503 1.52491 -0.00339972 1.82516 0.000106009Z" fill="white"/>
</svg>
